<svg id="filled_outline" data-name="filled outline" xmlns="http://www.w3.org/2000/svg" viewBox="0 0 340 340"><path d="M204.3,174.7s20.58-21.7,56.526-18.6a1.76,1.76,0,0,1,1.517,2.339c-2.836,8.01-14.211,36.176-34.967,39.513-24.231,3.895-35.777-3.536-35.777-3.536Z" style="fill:#678650"/><path d="M210.512,123.088s26.33-13.817,41.932-25.846a1.746,1.746,0,0,1,2.806,1.539c-1.234,13.893-7.932,60-42.949,75.871l-19.6-31Z" style="fill:#91af7e"/><path d="M226.084,21.039C222.406,37.96,210.125,85.5,183.36,113.5l-22.2,70.1,41.372-30.41s52.278-55.5,26.933-132.325A1.756,1.756,0,0,0,226.084,21.039Z" style="fill:#91af7e"/><path d="M191.164,151.638c.014-.026.026-.052.039-.078a55.847,55.847,0,0,1,4.017-8.777,118.3,118.3,0,0,0,7.526-56.637A127.98,127.98,0,0,1,183.359,113.5l-22.2,70.1,27.029-19.867a63.746,63.746,0,0,1,2.983-12.093Z" style="fill:#678650"/><path d="M160.988,177.729a99.24,99.24,0,0,1,32.743-22.866A91.256,91.256,0,0,0,221,137.526a1.748,1.748,0,0,1,2.951,1.25c.151,11.26-1.965,42.97-29.2,57.161l-35.5-4.518Z" style="fill:#91af7e"/><path d="M144.795,17.721c5.166,10.06,20.926,45.773,15.088,97.439l-10.762,38.188-24.3-30.2s2.27-75.569,16.842-105.388A1.752,1.752,0,0,1,144.795,17.721Z" style="fill:#678650"/><path d="M109.545,193.965s-33.2-7.417-32.591-55.149a1.753,1.753,0,0,1,2.149-1.7c8.382,2,39.97,12.309,60.3,56.851Z" style="fill:#678650"/><path d="M120.307,193.965s-1.685-5.315-1.966-15.788a107.126,107.126,0,0,0-12.659-47.356c-10.6-19.94-21.261-53.336-9.969-97.384,4.425-11.088,49.147,80.635,58.963,158.133v2.4Z" style="fill:#91af7e"/><path d="M120.307,193.965h34.369v-2.4a481.219,481.219,0,0,0-17.419-74.956l-.365.346c.539,12.514-.067,23.933-6.772,34.923-3.067,5.444-6.618,7.826-13.577,9.727a103.968,103.968,0,0,1,1.8,16.567C118.622,188.65,120.307,193.965,120.307,193.965Z" style="fill:#678650"/><path d="M164.414,192.077l30.332,3.86a48.843,48.843,0,0,0,14.748-11.718c-21.59-1.093-22.4-15.743-20.192-26.436l-.629-.6a93.118,93.118,0,0,0-8.419,4.738h-.01a100.584,100.584,0,0,0-19.256,15.808L159.936,186Z" style="fill:#678650"/><path d="M142.872,193.965s-15.638-45.612,14.315-82.865a168.319,168.319,0,0,0,11.332-15.589c4.716-7.477,10.123-17.319,12.394-26.144a1.748,1.748,0,0,1,3.214-.406c5.51,9.868,17.276,38.186-2.268,75.405A69.69,69.69,0,0,0,174.2,168.5c-.991,8.367-.511,17.976,4.427,25.462Z" style="fill:#91af7e"/><path d="M170,210.81H91.819l1.26,7.787,15.089,106.572H231.833L246.922,218.6l1.26-7.787Z" style="fill:#ffc998"/><path d="M78.052,191.57l2.51,15.768c1.035,6.5,6.324,11.259,12.517,11.259H246.922c6.193,0,11.482-4.757,12.517-11.259l2.51-15.768Z" style="fill:#ffc998"/><path d="M235.312,191.57l-4.449,16.936c-.63,3.129-3.092,7.968-6.52,9.338a8.567,8.567,0,0,1-3.543.753H149.3a3.012,3.012,0,0,0-.494,5.984l44.679,7.429a25.4,25.4,0,0,1,20.951,28.836l-9.682,64.323h27.075L246.922,218.6c6.193,0,11.482-4.757,12.517-11.259l2.51-15.768Z" style="fill:#f49d70"/><path d="M142.872,193.965H178.63a29.744,29.744,0,0,1-4.416-12.275c-26.76,1.151-35.3-21.1-35.3-21.1A98.429,98.429,0,0,0,142.872,193.965Z" style="fill:#678650"/><path d="M201.986,87.63a4,4,0,0,0,5.4-1.677c10.712-20.365,17.21-41.9,20.67-55.732,9.18,34.968,1.944,63.513-5.907,83.666a4.009,4.009,0,0,0,5.868,4.012c6.752-3.895,15.3-9.144,22.666-14.385-1.661,12.547-6.54,35.82-20.625,52.554a4,4,0,0,0,6.121,5.152c21.913-26.035,23.288-64.7,23.336-66.33a4,4,0,0,0-6.571-3.181,177.725,177.725,0,0,1-19.234,13.446c7.354-23.037,11.2-55.148-2.642-91.739-1.345-3.749-7.078-3.221-7.684.739-.061.359-6.363,36.3-23.078,68.073A4,4,0,0,0,201.986,87.63Z" style="fill:#2f313f"/><path d="M90.626,187.569H78.052A4.025,4.025,0,0,0,74.1,192.2l2.51,15.769a17.1,17.1,0,0,0,12.935,14.224l14.659,103.538a4,4,0,0,0,3.961,3.44H231.833a4,4,0,0,0,3.961-3.44L248.7,234.563a4,4,0,0,0-7.922-1.121l-12.42,87.727H111.641L97.685,222.6H246.922c8.192,0,15.117-6.153,16.467-14.63L265.9,192.2a4,4,0,0,0-3.95-4.629H250.81c10.7-12.726,15.82-29.261,16.073-30.1a4.027,4.027,0,0,0-3.379-5.136,85.551,85.551,0,0,0-12.787-.491c-5.27.339-4.967,8.047.3,7.994,2.146-.08,4.321-.068,6.512.037-2.706,6.9-8.667,19.756-17.9,27.692H228.734a65.8,65.8,0,0,0,10.973-11.84c2.88-4.391-3.571-8.786-6.61-4.505a59.032,59.032,0,0,1-18.361,16.345h-2.858c18.809-21.174,16.011-51.812,15.865-53.257a4,4,0,0,0-7.008-2.213c-.1.112-9.982,11.357-28.539,19.07a91.8,91.8,0,0,0-11.305,5.681c.539-1.635,1.137-3.264,1.812-4.882,15.543-13.018,26.664-31.635,33.285-45.079a4,4,0,0,0-7.178-3.535,161.315,161.315,0,0,1-16.617,27.035c13.079-38.836-6.032-72.23-11.445-69.091a4,4,0,0,0-2.957,3.327c-1,7.257-5.367,17.191-12.64,28.728-.292-48.88-17.2-83.813-21.931-82.522-7.628.321-14.294,32.975-17.068,51.547-.674,5.2,7.059,6.361,7.917,1.162,2.518-17.157,5.621-30.433,9.254-39.627,5.686,12.605,15.994,41.546,13.423,81.29-10.8,12.49-17.87,27.993-20.192,41.29a324.916,324.916,0,0,0-11.362-31.93,4,4,0,0,0-7.391,3.063c7.283,16.311,16.415,46.365,19.282,69.943H123.1a83.026,83.026,0,0,1-.757-9.5,111.713,111.713,0,0,0-13.126-49.125C99.126,109.968,89.5,79.491,98.372,39.512c7.594,12.175,22.7,39.253,35.551,79.81,2.008,5.395,9.72,2.169,7.4-3.113,8.114-21.627,8.17-49.832,8.168-51.046a4,4,0,0,0-8,.012c0,.238-.045,19.765-4.543,38.008C119.236,54.765,99.967,22.828,95.971,25.826a4,4,0,0,0-3.122,2.853c-13.132,46.81-2.19,82.4,9.3,104.02a104.391,104.391,0,0,1,11.843,39.58,98.328,98.328,0,0,1-13.644-13.352c-3.38-4.021-9.455.9-6.214,5.038.4.5,9.5,11.641,20.4,18.49.129,1.922.3,3.621.49,5.114h-10.71c-9.049-4.8-22.854-16.863-23.36-45.792a71.163,71.163,0,0,1,17.317,8.2,4,4,0,1,0,4.322-6.731c-13.75-8.831-24.574-10.459-25.027-10.524a4.023,4.023,0,0,0-4.566,3.827C72.112,163.5,81.245,178.9,90.626,187.569Zm104.64-29.013a97.675,97.675,0,0,0,24.574-14.673c-.594,11.395-4,31.289-19.531,43.686H179.831a26.143,26.143,0,0,1-.862-2.569c14.9-3.6,27.719-16.424,28.307-17.019,3.63-3.8-1.929-9.3-5.69-5.624-.124.126-11.383,11.4-23.765,14.69a50.637,50.637,0,0,1,.488-9.007A88.233,88.233,0,0,1,195.266,158.556ZM160.3,113.607c9.775-12,18.235-25.473,22.8-37.846,6.811,13.292,10.1,41.858-7.25,71.9-5.4,12.468-7.985,27-4.474,39.908h-7.341c-4.958-15.882-2.305-31.239.932-41.551a4,4,0,1,0-7.633-2.4c-3.426,10.914-6.258,26.977-1.644,43.946H145.276C140.868,164.584,140.019,140.558,160.3,113.607Zm-56.977,81.962H257.262l-1.773,11.14c-.728,4.571-4.33,7.888-8.567,7.888H93.078c-4.236,0-7.838-3.317-8.566-7.888l-1.773-11.14Z" style="fill:#2f313f"/><path d="M110.975,93.462c-3.06,1.934-2.454,4.347-.646,7.516a4,4,0,1,0,7.183-3.519C116.006,93.951,114.4,92.085,110.975,93.462Z" style="fill:#2f313f"/><path d="M167.092,130.021a4,4,0,0,0,5.472-1.435c1.8-2.383,2.113-5.046-.372-6.821-2.825-1.578-5.08-.228-6.534,2.784A4,4,0,0,0,167.092,130.021Z" style="fill:#2f313f"/><path d="M224.133,87.9c1.488-3.555,1.768-6.167-1.681-7.619a4,4,0,0,0-5.033,2.575c-.012.039-.28.865-.807,2.317C214.906,90.13,222.234,92.833,224.133,87.9Z" style="fill:#2f313f"/></svg>